<svg width="29" height="22" viewBox="0 0 29 22" fill="none" xmlns="http://www.w3.org/2000/svg">
<path d="M25.6667 0H3.66669C2.93734 0 2.23787 0.289731 1.72214 0.805456C1.20642 1.32118 0.916687 2.02065 0.916687 2.75V19.25C0.916687 19.9793 1.20642 20.6788 1.72214 21.1945C2.23787 21.7103 2.93734 22 3.66669 22H25.6667C26.396 22 27.0955 21.7103 27.6112 21.1945C28.127 20.6788 28.4167 19.9793 28.4167 19.25V2.75C28.4167 2.02065 28.127 1.32118 27.6112 0.805456C27.0955 0.289731 26.396 0 25.6667 0V0ZM25.6667 9.625H3.66669V5.5H25.6667V9.625Z" fill="#666CFF"/>
</svg>
